Gamer (2009) (MPEG-4)(IPONE)(NL SUBS) 2Lions-Team      


Verenigde Staten
Thriller / Science-Fiction
95 minuten

geregisseerd door Mark Neveldine en Brian Taylor
met Gerard Butler, John Leguizamo en Alison Lohman

In een futuristische toekomst worden gevangenen opgepakt en veroordeeld om in een uiterst gevaarlijk virtual reality spel met elkaar te vechten tot het eind. Eén van de sterspelers, Kable, afkomstig van één van de competities genaamd 'Slayers' probeert zijn onafhankelijkheid te winnen door helemaal van onderaan te beginnen om zo tot het eind te overleven en het uiteindelijk op te nemen tegen de genie van het spel, Zaal.



English

Set in a future-world where humans can control other humans in mass-scale, multi-player online gaming environments, a star player (Butler) from a game called "Slayers" looks to regain his independence while taking down the game's mastermind


GAMER (2009)



Source.............: Gamer 720p BluRay x264-iNFAMOUS
Categorie : Beeld
Formaat : MPEG-4
Ondertitels : Nederlands (hardcoded) 

Format                           : MPEG-4
Format profile                   : Base Media
Codec ID                         : isom
File size                        : 1.08 GiB
Duration                         : 1h 34mn
Overall bit rate                 : 1 631 Kbps


Video
ID                               : 1
Format                           : MPEG-4 Visual
Format profile                   : Simple@L1
Format settings, BVOP            : No
Format settings, QPel            : No
Format settings, GMC             : No warppoints
Format settings, Matrix          : Default (H.263)
Codec ID                         : 20
Duration                         : 1h 34mn
Bit rate mode                    : Variable
Bit rate                         : 1 499 Kbps
Width                            : 720 pixels
Height                           : 406 pixels
Display aspect ratio             : 16/9
Frame rate mode                  : Constant
Frame rate                       : 23.976 fps
Resolution                       : 24 bits
Colorimetry                      : 4:2:0
Scan type                        : Progressive
Bits/(Pixel*Frame)               : 0.214
Stream size                      : 1 016 MiB (92%)
Writing library                  : Lavc51.40.4


Audio
ID                               : 2
Format                           : AAC
Format/Info                      : Advanced Audio Codec
Format version                   : Version 4
Format profile                   : LC
Format settings, SBR             : No
Codec ID                         : 40
Duration                         : 1h 34mn
Bit rate mode                    : Variable
Bit rate                         : 128 Kbps
Channel(s)                       : 2 channels
Channel positions                : L R
Sampling rate                    : 48.0 KHz
Resolution                       : 16 bits
Stream size                      : 86.7 MiB (8%)


Spotinformatie 
Categorie : Beeld 
Formaat : DVD5 
Bron : Retail
 
Ondertitels : Nederlands (Hardcoded)
 
Genre : Actie
Science Fiction
 
Weblink : http://www.moviemeter.nl/film/47857
Weblink : http://www.imdb.com/title/tt1034032 
  
***************************************** 

Brought to you by 
 
2Lions Team 

meer zien?? 
Kom dan eens kijken op ons forum 
   
http://www.2lions.ons-forum.nl 

2Lions-Team for all your Dutch MOVIES and more 

*****************************************